HIERARCHY
ROOT Hips
{
	OFFSET -19.934631 -33.524395 87.965111
	CHANNELS 6 Xposition Yposition Zposition Zrotation Yrotation Xrotation
	JOINT Spine
	{
		OFFSET 0.000000 2.080107 8.814247
		CHANNELS 6 Xposition Yposition Zposition Zrotation Yrotation Xrotation
		JOINT Spine1
		{
			OFFSET 0.000000 0.000000 8.844139
			CHANNELS 6 Xposition Yposition Zposition Zrotation Yrotation Xrotation
			JOINT Spine2
			{
				OFFSET 0.000000 0.000002 11.682266
				CHANNELS 6 Xposition Yposition Zposition Zrotation Yrotation Xrotation
				JOINT Spine3
				{
					OFFSET 0.000000 0.000000 11.746696
					CHANNELS 6 Xposition Yposition Zposition Zrotation Yrotation Xrotation
					JOINT Neck
					{
						OFFSET 0.000000 0.000002 17.658264
						CHANNELS 6 Xposition Yposition Zposition Zrotation Yrotation Xrotation
						JOINT Neck1
						{
							OFFSET 0.000000 0.000000 5.101517
							CHANNELS 6 Xposition Yposition Zposition Zrotation Yrotation Xrotation
							JOINT Head
							{
								OFFSET 0.000000 0.000000 5.101517
								CHANNELS 6 Xposition Yposition Zposition Zrotation Yrotation Xrotation
								JOINT HeadEnd
								{
									OFFSET 0.000000 0.000002 11.655090
									CHANNELS 6 Xposition Yposition Zposition Zrotation Yrotation Xrotation
									End Site
									{
										OFFSET 0.000000 0.000000 0.100006
									}
								}
							}
						}
					}
					JOINT RightShoulder
					{
						OFFSET -2.625389 0.000002 11.175217
						CHANNELS 6 Xposition Yposition Zposition Zrotation Yrotation Xrotation
						JOINT RightArm
						{
							OFFSET 0.000000 0.000000 10.434708
							CHANNELS 6 Xposition Yposition Zposition Zrotation Yrotation Xrotation
							JOINT RightForeArm
							{
								OFFSET 0.000000 0.000002 29.628418
								CHANNELS 6 Xposition Yposition Zposition Zrotation Yrotation Xrotation
								JOINT RightHand
								{
									OFFSET 0.000000 0.000002 22.857605
									CHANNELS 6 Xposition Yposition Zposition Zrotation Yrotation Xrotation
									JOINT RightHandThumb1
									{
										OFFSET -2.867323 -2.944292 3.959564
										CHANNELS 6 Xposition Yposition Zposition Zrotation Yrotation Xrotation
										JOINT RightHandThumb2
										{
											OFFSET 0.000000 0.000000 3.350403
											CHANNELS 6 Xposition Yposition Zposition Zrotation Yrotation Xrotation
											JOINT RightHandThumb3
											{
												OFFSET 0.000000 0.000000 3.756516
												CHANNELS 6 Xposition Yposition Zposition Zrotation Yrotation Xrotation
												JOINT RightHandThumb4
												{
													OFFSET 0.000000 0.000000 3.147339
													CHANNELS 6 Xposition Yposition Zposition Zrotation Yrotation Xrotation
													End Site
													{
														OFFSET 0.000000 0.000000 0.100006
													}
												}
											}
										}
									}
									JOINT RightHandIndex1
									{
										OFFSET -0.086752 -2.345282 10.030899
										CHANNELS 6 Xposition Yposition Zposition Zrotation Yrotation Xrotation
										JOINT RightHandIndex2
										{
											OFFSET 0.000000 0.000000 4.061096
											CHANNELS 6 Xposition Yposition Zposition Zrotation Yrotation Xrotation
											JOINT RightHandIndex3
											{
												OFFSET 0.000000 0.000000 3.248871
												CHANNELS 6 Xposition Yposition Zposition Zrotation Yrotation Xrotation
												JOINT RightHandIndex4
												{
													OFFSET 0.000000 0.000000 2.639709
													CHANNELS 6 Xposition Yposition Zposition Zrotation Yrotation Xrotation
													End Site
													{
														OFFSET 0.000000 0.000000 0.100006
													}
												}
											}
										}
									}
									JOINT RightHandMiddle1
									{
										OFFSET 0.104101 -0.006767 9.502945
										CHANNELS 6 Xposition Yposition Zposition Zrotation Yrotation Xrotation
										JOINT RightHandMiddle2
										{
											OFFSET 0.000000 0.000002 4.568726
											CHANNELS 6 Xposition Yposition Zposition Zrotation Yrotation Xrotation
											JOINT RightHandMiddle3
											{
												OFFSET 0.000000 0.000000 3.654984
												CHANNELS 6 Xposition Yposition Zposition Zrotation Yrotation Xrotation
												JOINT RightHandMiddle4
												{
													OFFSET 0.000000 0.000000 2.741241
													CHANNELS 6 Xposition Yposition Zposition Zrotation Yrotation Xrotation
													End Site
													{
														OFFSET 0.000000 0.000000 0.100006
													}
												}
											}
										}
									}
									JOINT RightHandRing1
									{
										OFFSET 0.086752 2.267443 8.921707
										CHANNELS 6 Xposition Yposition Zposition Zrotation Yrotation Xrotation
										JOINT RightHandRing2
										{
											OFFSET 0.000000 0.000002 4.061096
											CHANNELS 6 Xposition Yposition Zposition Zrotation Yrotation Xrotation
											JOINT RightHandRing3
											{
												OFFSET 0.000000 0.000000 3.654984
												CHANNELS 6 Xposition Yposition Zposition Zrotation Yrotation Xrotation
												JOINT RightHandRing4
												{
													OFFSET 0.000000 0.000000 2.741241
													CHANNELS 6 Xposition Yposition Zposition Zrotation Yrotation Xrotation
													End Site
													{
														OFFSET 0.000000 0.000000 0.100006
													}
												}
											}
										}
									}
									JOINT RightHandPinky1
									{
										OFFSET -0.173504 4.467199 7.976990
										CHANNELS 6 Xposition Yposition Zposition Zrotation Yrotation Xrotation
										JOINT RightHandPinky2
										{
											OFFSET 0.000000 0.000000 3.350403
											CHANNELS 6 Xposition Yposition Zposition Zrotation Yrotation Xrotation
											JOINT RightHandPinky3
											{
												OFFSET 0.000000 0.000002 2.842758
												CHANNELS 6 Xposition Yposition Zposition Zrotation Yrotation Xrotation
												JOINT RightHandPinky4
												{
													OFFSET 0.000000 0.000000 2.639709
													CHANNELS 6 Xposition Yposition Zposition Zrotation Yrotation Xrotation
													End Site
													{
														OFFSET 0.000000 0.000000 0.100006
													}
												}
											}
										}
									}
									JOINT RightForeArmEnd
									{
										OFFSET 0.000000 0.000000 0.000000
										CHANNELS 6 Xposition Yposition Zposition Zrotation Yrotation Xrotation
										End Site
										{
											OFFSET 0.000000 0.000000 0.100006
										}
									}
								}
								JOINT RightArmEnd
								{
									OFFSET 0.000000 0.000000 0.000000
									CHANNELS 6 Xposition Yposition Zposition Zrotation Yrotation Xrotation
									End Site
									{
										OFFSET 0.000000 0.000000 0.100006
									}
								}
							}
						}
					}
					JOINT LeftShoulder
					{
						OFFSET 2.625389 0.000002 11.175217
						CHANNELS 6 Xposition Yposition Zposition Zrotation Yrotation Xrotation
						JOINT LeftArm
						{
							OFFSET 0.000000 0.000000 10.813629
							CHANNELS 6 Xposition Yposition Zposition Zrotation Yrotation Xrotation
							JOINT LeftForeArm
							{
								OFFSET 0.000000 0.000002 28.724777
								CHANNELS 6 Xposition Yposition Zposition Zrotation Yrotation Xrotation
								JOINT LeftHand
								{
									OFFSET 0.644384 0.328873 25.716171
									CHANNELS 6 Xposition Yposition Zposition Zrotation Yrotation Xrotation
									JOINT LeftHandThumb1
									{
										OFFSET 2.867323 -2.944290 3.959564
										CHANNELS 6 Xposition Yposition Zposition Zrotation Yrotation Xrotation
										JOINT LeftHandThumb2
										{
											OFFSET 0.000000 0.000000 3.350403
											CHANNELS 6 Xposition Yposition Zposition Zrotation Yrotation Xrotation
											JOINT LeftHandThumb3
											{
												OFFSET 0.000000 0.000000 3.756516
												CHANNELS 6 Xposition Yposition Zposition Zrotation Yrotation Xrotation
												JOINT LeftHandThumb4
												{
													OFFSET 0.000000 0.000000 3.100006
													CHANNELS 6 Xposition Yposition Zposition Zrotation Yrotation Xrotation
													End Site
													{
														OFFSET 0.000000 0.000000 0.100006
													}
												}
											}
										}
									}
									JOINT LeftHandIndex1
									{
										OFFSET 0.086752 -2.345280 10.030899
										CHANNELS 6 Xposition Yposition Zposition Zrotation Yrotation Xrotation
										JOINT LeftHandIndex2
										{
											OFFSET 0.000000 0.000000 4.061096
											CHANNELS 6 Xposition Yposition Zposition Zrotation Yrotation Xrotation
											JOINT LeftHandIndex3
											{
												OFFSET 0.000000 0.000000 3.248871
												CHANNELS 6 Xposition Yposition Zposition Zrotation Yrotation Xrotation
												JOINT LeftHandIndex4
												{
													OFFSET 0.000000 0.000000 2.639709
													CHANNELS 6 Xposition Yposition Zposition Zrotation Yrotation Xrotation
													End Site
													{
														OFFSET 0.000000 0.000000 0.100006
													}
												}
											}
										}
									}
									JOINT LeftHandMiddle1
									{
										OFFSET -0.104101 -0.006765 9.502945
										CHANNELS 6 Xposition Yposition Zposition Zrotation Yrotation Xrotation
										JOINT LeftHandMiddle2
										{
											OFFSET 0.000000 0.000000 4.568726
											CHANNELS 6 Xposition Yposition Zposition Zrotation Yrotation Xrotation
											JOINT LeftHandMiddle3
											{
												OFFSET 0.000000 0.000000 3.654984
												CHANNELS 6 Xposition Yposition Zposition Zrotation Yrotation Xrotation
												JOINT LeftHandMiddle4
												{
													OFFSET 0.000000 0.000000 2.741241
													CHANNELS 6 Xposition Yposition Zposition Zrotation Yrotation Xrotation
													End Site
													{
														OFFSET 0.000000 0.000000 0.100006
													}
												}
											}
										}
									}
									JOINT LeftHandRing1
									{
										OFFSET -0.086752 2.267443 8.921707
										CHANNELS 6 Xposition Yposition Zposition Zrotation Yrotation Xrotation
										JOINT LeftHandRing2
										{
											OFFSET 0.000000 0.000002 4.061096
											CHANNELS 6 Xposition Yposition Zposition Zrotation Yrotation Xrotation
											JOINT LeftHandRing3
											{
												OFFSET 0.000000 0.000000 3.654984
												CHANNELS 6 Xposition Yposition Zposition Zrotation Yrotation Xrotation
												JOINT LeftHandRing4
												{
													OFFSET 0.000000 0.000000 2.741241
													CHANNELS 6 Xposition Yposition Zposition Zrotation Yrotation Xrotation
													End Site
													{
														OFFSET 0.000000 0.000000 0.100006
													}
												}
											}
										}
									}
									JOINT LeftHandPinky1
									{
										OFFSET 0.173504 4.467199 7.976990
										CHANNELS 6 Xposition Yposition Zposition Zrotation Yrotation Xrotation
										JOINT LeftHandPinky2
										{
											OFFSET 0.000000 0.000002 3.350403
											CHANNELS 6 Xposition Yposition Zposition Zrotation Yrotation Xrotation
											JOINT LeftHandPinky3
											{
												OFFSET 0.000000 0.000000 2.842758
												CHANNELS 6 Xposition Yposition Zposition Zrotation Yrotation Xrotation
												JOINT LeftHandPinky4
												{
													OFFSET 0.000000 0.000000 2.639709
													CHANNELS 6 Xposition Yposition Zposition Zrotation Yrotation Xrotation
													End Site
													{
														OFFSET 0.000000 0.000000 0.100006
													}
												}
											}
										}
									}
									JOINT LeftForeArmEnd
									{
										OFFSET 0.000000 0.000000 0.000000
										CHANNELS 6 Xposition Yposition Zposition Zrotation Yrotation Xrotation
										End Site
										{
											OFFSET 0.000000 0.000000 0.100006
										}
									}
								}
								JOINT LeftArmEnd
								{
									OFFSET 0.000000 0.000000 0.000000
									CHANNELS 6 Xposition Yposition Zposition Zrotation Yrotation Xrotation
									End Site
									{
										OFFSET 0.000000 0.000000 0.100006
									}
								}
							}
						}
					}
				}
			}
		}
	}
	JOINT RightUpLeg
	{
		OFFSET -11.289944 0.000000 0.000000
		CHANNELS 6 Xposition Yposition Zposition Zrotation Yrotation Xrotation
		JOINT RightLeg
		{
			OFFSET 0.000000 -0.000004 -38.200321
			CHANNELS 6 Xposition Yposition Zposition Zrotation Yrotation Xrotation
			JOINT RightFoot
			{
				OFFSET 0.000000 -0.000004 -39.900856
				CHANNELS 6 Xposition Yposition Zposition Zrotation Yrotation Xrotation
				JOINT RightToeBase
				{
					OFFSET 0.000000 -15.261639 0.000001
					CHANNELS 6 Xposition Yposition Zposition Zrotation Yrotation Xrotation
					JOINT RightToeBaseEnd
					{
						OFFSET 0.000000 -7.370708 0.000000
						CHANNELS 6 Xposition Yposition Zposition Zrotation Yrotation Xrotation
						End Site
						{
							OFFSET 0.000000 0.000000 0.100000
						}
					}
				}
				JOINT RightLegEnd
				{
					OFFSET 0.000000 0.000000 0.000000
					CHANNELS 6 Xposition Yposition Zposition Zrotation Yrotation Xrotation
					End Site
					{
						OFFSET 0.000000 0.000000 0.100000
					}
				}
			}
			JOINT RightUpLegEnd
			{
				OFFSET 0.000000 0.000000 0.000000
				CHANNELS 6 Xposition Yposition Zposition Zrotation Yrotation Xrotation
				End Site
				{
					OFFSET 0.000000 0.000000 0.099998
				}
			}
		}
	}
	JOINT LeftUpLeg
	{
		OFFSET 11.315661 0.000000 0.000000
		CHANNELS 6 Xposition Yposition Zposition Zrotation Yrotation Xrotation
		JOINT LeftLeg
		{
			OFFSET 0.000000 -0.000004 -38.200321
			CHANNELS 6 Xposition Yposition Zposition Zrotation Yrotation Xrotation
			JOINT LeftFoot
			{
				OFFSET 0.000000 -0.000004 -39.900856
				CHANNELS 6 Xposition Yposition Zposition Zrotation Yrotation Xrotation
				JOINT LeftToeBase
				{
					OFFSET 0.000000 -15.261639 0.000001
					CHANNELS 6 Xposition Yposition Zposition Zrotation Yrotation Xrotation
					JOINT LeftToeBaseEnd
					{
						OFFSET 0.000000 -7.539997 0.000000
						CHANNELS 6 Xposition Yposition Zposition Zrotation Yrotation Xrotation
						End Site
						{
							OFFSET 0.000000 0.000000 0.100000
						}
					}
				}
				JOINT LeftLegEnd
				{
					OFFSET 0.000000 0.000000 0.000000
					CHANNELS 6 Xposition Yposition Zposition Zrotation Yrotation Xrotation
					End Site
					{
						OFFSET 0.000000 0.000000 0.100000
					}
				}
			}
			JOINT LeftUpLegEnd
			{
				OFFSET 0.000000 0.000000 0.000000
				CHANNELS 6 Xposition Yposition Zposition Zrotation Yrotation Xrotation
				End Site
				{
					OFFSET 0.000000 0.000000 0.099998
				}
			}
		}
	}
}
MOTION
Frames: 2
Frame Time: 0.016667
13.896530 -4.747683 86.060081 -11.843283 -3.111545 -16.284549 0.000003 2.080106 8.814263 -0.044520 0.131657 7.234535 -0.000001 0.000001 8.844162 0.617077 2.882278 -3.082174 -0.000002 0.000004 11.682257 -0.852207 2.474465 20.050529 0.000000 0.000003 11.746695 -1.117989 0.687662 2.200424 -0.000001 -0.000006 17.658276 -0.242429 -10.811135 32.781059 -0.000001 0.000005 5.101512 2.389610 1.322293 3.332916 -0.000002 -0.000032 5.101500 4.361773 -0.052511 -25.867858 -0.000002 -0.000005 11.655088 0.000001 -0.000001 0.000002 -2.625393 -0.000003 11.175237 2.569746 -96.886158 -0.623559 -0.000008 -0.000006 10.434712 22.984328 -53.020160 15.823182 -0.000002 0.000011 29.628420 13.113652 -0.364881 125.892367 0.000007 -0.000001 22.857632 29.209782 23.211855 19.377361 -2.867323 -2.944304 3.959550 31.493323 -19.227420 48.594057 -0.000002 0.000004 3.350401 -17.040026 9.871822 -30.074621 0.000005 -0.000002 3.756532 -11.274523 7.830404 -20.528313 -0.000004 -0.000001 3.147354 0.000000 0.000000 0.000000 -0.086744 -2.345283 10.030893 -16.157992 -30.946836 7.353561 -0.000015 0.000006 4.061095 -0.152110 -22.310080 3.306082 -0.000014 0.000003 3.248884 -0.652099 -22.310652 3.306081 0.000014 0.000001 2.639724 -0.000000 -0.000001 0.000000 0.104100 -0.006764 9.502958 -10.425754 -31.825847 2.596519 0.000000 -0.000003 4.568725 0.247930 -22.696266 1.255948 -0.000003 0.000002 3.655004 -0.252070 -22.696252 1.255943 0.000003 0.000002 2.741258 0.000001 0.000000 -0.000003 0.086736 2.267443 8.921707 -1.378129 -33.450985 -5.438732 -0.000009 -0.000005 4.061097 -0.668301 -23.999840 -1.560435 -0.000011 0.000003 3.654967 0.331683 -24.000091 -1.560430 0.000009 0.000003 2.741239 0.000001 -0.000002 0.000003 -0.173505 4.467201 7.976984 8.387119 -31.402604 -14.843903 0.000006 0.000004 3.350409 -0.978469 -23.634364 -4.879582 0.000006 -0.000002 2.842780 1.021523 -23.634413 -4.879594 0.000004 -0.000002 2.639693 0.000000 -0.000001 0.000003 0.000001 0.000003 -0.000016 0.000002 -0.000000 0.000001 0.000005 0.000004 0.000015 0.000002 -0.000001 -0.000001 2.625371 -0.000002 11.175218 -3.930925 94.570881 -1.131765 -0.000010 -0.000002 10.813637 47.675410 42.178580 31.392905 0.000003 -0.000026 28.724792 -12.197353 3.461016 51.478176 0.644378 0.328875 25.716164 -18.955959 1.858600 -19.895006 2.867320 -2.944310 3.959551 -31.897772 15.552981 54.185216 -0.000002 0.000002 3.350404 8.915199 -6.663882 -16.494656 0.000001 0.000004 3.756538 5.983489 -4.904834 -11.331887 0.000003 -0.000006 3.099990 -0.000000 0.000000 0.000001 0.086755 -2.345284 10.030869 -7.019549 7.654902 -6.626521 0.000007 -0.000004 4.061113 0.455395 6.017665 -0.848874 -0.000003 -0.000001 3.248867 -0.044601 6.017638 -0.848877 0.000003 -0.000003 2.639694 0.000002 0.000000 -0.000000 -0.104097 -0.006768 9.502912 -1.837323 9.070203 -6.860405 0.000005 -0.000001 4.568727 0.476937 6.724064 -0.354283 -0.000002 -0.000000 3.655004 -0.022608 6.723750 -0.354233 0.000001 -0.000001 2.741241 -0.000000 -0.000001 -0.000001 -0.086744 2.267440 8.921712 6.691531 12.118571 -3.957363 -0.000001 0.000007 4.061091 -0.961113 8.352760 0.514718 -0.000002 -0.000002 3.654989 0.039753 8.352691 0.514840 0.000002 -0.000003 2.741226 0.000002 0.000001 0.000000 0.173509 4.467198 7.976969 15.705035 13.712546 -1.096528 -0.000001 0.000000 3.350408 -1.856493 9.149436 1.793640 -0.000002 -0.000003 2.842756 0.144316 9.146860 1.793877 -0.000001 0.000002 2.639709 0.000000 -0.000001 -0.000000 0.000003 -0.000003 -0.000032 0.000003 -0.000001 0.000002 -0.000012 0.000001 -0.000000 -0.000001 0.000002 0.000001 -11.289936 -0.000012 0.000026 -0.887038 15.531942 4.745934 -0.000002 -0.000005 -38.200317 -0.771009 0.268049 18.799508 0.000000 -0.000004 -39.900852 -9.555792 -5.444273 21.528565 -0.000002 -15.261643 0.000002 -1.230555 1.128889 -28.236074 0.000001 -7.370708 0.000000 -0.000002 0.000000 -0.000000 0.000000 -0.000003 -0.000001 -0.000002 -0.000001 0.000002 0.000000 -0.000004 0.000011 -0.000000 0.000001 0.000001 11.315664 -0.000014 0.000032 14.445126 2.680185 20.327729 -0.000000 -0.000016 -38.200314 0.353870 -0.075296 12.003577 0.000003 -0.000006 -39.900860 13.248933 -6.213457 10.764642 -0.000001 -15.261648 0.000006 0.771876 0.364204 -27.559161 0.000000 -7.539997 -0.000000 -0.000000 0.000000 0.000000 0.000001 -0.000007 0.000002 -0.000001 0.000001 0.000001 -0.000001 -0.000005 0.000007 0.000000 0.000000 0.000002 
13.528736 -4.861702 86.112709 -12.284828 -2.808219 -16.438155 -0.000002 2.080108 8.814258 -0.055115 0.029001 7.307145 -0.000001 -0.000002 8.844149 0.561404 2.717005 -3.034201 0.000002 -0.000005 11.682261 -0.962694 2.472559 19.925820 -0.000002 -0.000001 11.746700 -1.168055 0.650926 2.178272 -0.000004 -0.000010 17.658253 -0.410026 -11.577503 32.748561 0.000004 0.000003 5.101521 2.572089 1.290985 3.318575 -0.000003 0.000002 5.101486 4.347173 0.080903 -25.883851 -0.000001 0.000013 11.655106 0.000000 0.000002 0.000001 -2.625398 -0.000003 11.175210 2.545298 -96.536432 -0.620895 -0.000017 -0.000005 10.434708 24.200825 -52.807416 17.084846 0.000003 -0.000007 29.628410 13.648620 -0.368752 126.728245 0.000001 0.000008 22.857622 28.633873 24.068828 18.326412 -2.867311 -2.944284 3.959538 31.497701 -19.046527 48.857518 -0.000002 -0.000018 3.350398 -16.635670 9.763190 -29.415787 0.000004 -0.000005 3.756552 -11.011567 7.710552 -20.083239 -0.000003 -0.000000 3.147339 -0.000000 -0.000000 0.000000 -0.086760 -2.345287 10.030889 -15.889112 -30.103864 8.094131 0.000001 0.000000 4.061094 -0.120756 -21.800871 3.222572 -0.000001 -0.000004 3.248881 -0.620752 -21.800871 3.222577 -0.000021 0.000004 2.639709 0.000001 -0.000001 0.000001 0.104115 -0.006770 9.502964 -10.193157 -30.986509 3.210208 -0.000009 0.000007 4.568711 0.261281 -22.125377 1.220930 -0.000005 -0.000001 3.654981 -0.238720 -22.125384 1.220931 -0.000012 -0.000001 2.741256 -0.000000 -0.000001 0.000001 0.086741 2.267441 8.921696 -1.160976 -32.378693 -4.930211 -0.000014 -0.000000 4.061111 -0.691370 -23.209259 -1.502823 -0.000009 0.000004 3.654970 0.308619 -23.209278 -1.502810 -0.000022 0.000010 2.741258 0.000001 0.000002 -0.000001 -0.173508 4.467195 7.976988 8.540636 -30.065352 -14.228273 -0.000015 -0.000007 3.350426 -1.069113 -22.634277 -4.648876 -0.000021 0.000006 2.842754 0.930875 -22.634321 -4.648886 -0.000011 -0.000005 2.639710 -0.000001 0.000002 -0.000001 0.000001 0.000001 -0.000015 -0.000004 0.000002 -0.000000 -0.000000 0.000004 0.000016 0.000001 0.000002 0.000000 2.625387 0.000002 11.175218 -4.127722 94.619539 -1.040600 0.000003 -0.000002 10.813635 47.165864 42.799106 30.457217 -0.000001 -0.000023 28.724796 -11.007903 4.376467 50.012923 0.644395 0.328878 25.716190 -20.235904 1.085248 -21.638437 2.867321 -2.944267 3.959583 -31.897762 15.552964 54.185431 -0.000005 0.000011 3.350430 8.915273 -6.663817 -16.495158 0.000003 0.000004 3.756541 5.983426 -4.904901 -11.331603 -0.000001 0.000001 3.100020 -0.000000 0.000000 0.000002 0.086750 -2.345277 10.030912 -7.077000 6.916346 -7.995800 -0.000004 -0.000000 4.061102 0.459719 5.645091 -0.796071 0.000001 -0.000000 3.248872 -0.040219 5.645090 -0.796064 -0.000003 -0.000000 2.639725 0.000000 -0.000000 -0.000000 -0.104103 -0.006766 9.502963 -1.910820 8.489532 -8.244966 0.000001 -0.000001 4.568735 0.477808 6.372169 -0.335718 -0.000004 -0.000003 3.655006 -0.021588 6.371760 -0.335652 0.000001 -0.000002 2.741226 0.000001 0.000001 0.000000 -0.086750 2.267444 8.921738 6.611293 11.865833 -5.303308 -0.000005 0.000004 4.061090 -0.961729 8.099237 0.499123 0.000004 -0.000000 3.654976 0.038962 8.099230 0.499214 0.000004 0.000001 2.741241 -0.000004 -0.000001 -0.000000 0.173504 4.467198 7.976998 15.655497 13.818245 -2.312117 0.000002 0.000003 3.350405 -1.857615 9.029288 1.770415 0.000003 -0.000003 2.842776 0.142281 9.028896 1.770401 -0.000006 -0.000003 2.639710 0.000002 0.000002 -0.000000 -0.000002 -0.000002 0.000030 0.000002 -0.000002 0.000001 -0.000001 0.000009 -0.000001 -0.000006 -0.000001 0.000001 -11.289939 -0.000016 0.000009 -0.945069 14.955498 5.100045 -0.000004 -0.000006 -38.200317 -0.787589 0.268557 18.446056 0.000001 -0.000004 -39.900856 -9.247510 -5.120619 21.553253 -0.000004 -15.261648 0.000004 -1.185219 1.109410 -28.275479 -0.000002 -7.370715 0.000000 -0.000002 -0.000000 -0.000000 -0.000003 -0.000008 0.000000 0.000001 -0.000000 -0.000001 -0.000001 -0.000004 0.000007 0.000001 -0.000000 0.000000 11.315662 -0.000017 0.000014 14.537060 2.039612 20.560118 0.000001 -0.000019 -38.200314 0.386871 -0.081834 11.943340 0.000003 -0.000000 -39.900860 13.340311 -5.898851 10.716136 0.000001 -15.261642 0.000003 0.766641 0.317192 -27.536377 -0.000001 -7.540001 0.000001 0.000001 -0.000000 -0.000000 0.000002 -0.000004 -0.000001 0.000001 0.000001 -0.000001 0.000002 -0.000001 -0.000001 -0.000000 -0.000000 0.000001 
